<?xml version="1.0" encoding="utf-8"?>
<!-- Svg Vector Icons : http://www.onlinewebfonts.com/icon -->
<!DOCTYPE svg PUBLIC "-//W3C//DTD SVG 1.1//EN" "http://www.w3.org/Graphics/SVG/1.1/DTD/svg11.dtd">
<svg version="1.1" xmlns="http://www.w3.org/2000/svg" xmlns:xlink="http://www.w3.org/1999/xlink" x="0px" y="0px" viewBox="0 0 1000 1000" enable-background="new 0 0 1000 1000" xml:space="preserve">
<metadata> Svg Vector Icons : http://www.onlinewebfonts.com/icon </metadata>
<g><g transform="translate(0.000000,511.000000) scale(0.100000,-0.100000)"><path d="M3354.1,4271.1c-482.9-118.8-912.1-521.2-1130.6-1055.8C1734.9,2013.7,2330.9,574.7,3407.8,352.4c442.6-92,873.8,42.2,1241.7,385.2c310.4,291.3,521.2,699.4,603.6,1163.2c36.4,214.6,36.4,609.4,0,822.1c-162.9,935.1-820.1,1590.5-1588.6,1582.8C3568.8,4305.6,3428.9,4290.2,3354.1,4271.1z"/><path d="M1859.5,26.6c-126.5-28.8-274-97.7-410.1-189.7c-120.7-82.4-459.9-415.8-599.8-588.3c-270.2-335.3-534.6-818.2-676.4-1236c-61.3-182-70.9-235.7-72.8-392.8c-1.9-166.7,1.9-189.7,51.7-272.1c99.6-170.5,321.9-274,710.9-329.6c283.6-42.1,423.5-80.5,960-258.7c779.9-260.6,1063.5-308.5,1849.2-308.5c559.6,0,816.3,23,1168.9,105.4c266.4,63.2,710.9,205,718.6,230c3.8,9.6,21.1,69,36.4,128.4c17.2,59.4,61.3,147.6,95.8,193.5c63.2,82.4,65.1,88.2,30.7,118.8c-55.6,49.8-130.3,239.5-153.3,385.2c-26.8,174.4-11.5,546.1,26.8,672.6c17.2,55.6,63.2,139.9,99.6,189.7l69,88.2l-49.8,51.7c-116.9,122.6-164.8,341.1-157.1,720.5c5.7,258.7,40.2,379.4,145.6,511.6l59.4,72.8l-101.6,47.9C5417.9,78.3,5193.7,72.6,4912.1-52C4045.9-437.1,3413.5-462,2649-143.9C2532.1-96,2388.4-36.6,2330.9-11.7C2192.9,43.9,2008.9,59.2,1859.5,26.6z"/><path d="M6061.8-176.5c-88.2-26.8-178.2-107.3-222.3-197.4c-36.4-72.8-40.3-116.9-40.3-390.9c0-283.6,3.8-312.3,44.1-390.9c24.9-46,82.4-109.2,126.5-141.8l82.4-57.5l1753.4-5.8c1176.6-3.8,1776.3,1.9,1826.2,15.3c97.7,26.8,187.8,105.4,231.9,201.2c30.7,63.2,36.4,128.4,36.4,389c0,272.1-3.8,321.9-38.3,385.2c-46,92-134.1,166.7-226.1,193.6C9549.3-153.5,6142.3-153.5,6061.8-176.5z"/><path d="M5979.4-1586.9c-42.2-26.8-97.7-80.5-122.6-118.8c-46-63.2-47.9-86.2-53.7-375.6c-3.8-187.8,1.9-335.3,13.4-379.4c28.7-95.8,109.2-185.9,203.1-228c72.8-34.5,170.5-36.4,1839.6-36.4h1762.9l74.7,44.1c42.1,23,101.6,74.7,134.1,115l59.4,74.7l5.8,333.4c5.7,314.3,3.8,341.1-36.4,423.5c-28.8,57.5-70.9,105.4-128.4,141.8l-88.2,55.6H7849.6H6056L5979.4-1586.9z"/><path d="M6019.6-2928.2c-86.2-44.1-145.6-105.4-184-189.7c-51.7-113.1-51.7-634.3,0-747.3c42.2-90.1,122.6-170.5,199.3-199.3c36.4-15.3,622.8-21.1,1831.9-21.1h1776.3l76.7,49.8c42.2,26.8,97.7,80.5,122.6,118.8c46,63.2,47.9,86.2,53.7,375.6c3.8,168.6,1.9,335.3-5.8,371.7c-13.4,76.7-130.3,210.8-214.6,247.2c-49.8,19.2-390.9,24.9-1830,24.9C6280.2-2897.6,6071.4-2901.4,6019.6-2928.2z"/></g></g>
</svg>